<svg width="9174" height="3881" viewBox="0 0 9174 3881" fill="none" xmlns="http://www.w3.org/2000/svg">
<ellipse cx="1543.8" cy="1513.76" rx="1543.8" ry="1513.76" fill="url(#paint0_linear_2471_287)"/>
<path d="M1442.97 813.275C1449.74 796.682 1473.23 796.682 1480 813.275L2402.9 3075.17C2408.26 3088.32 2398.59 3102.72 2384.38 3102.72H538.594C524.386 3102.72 514.709 3088.32 520.076 3075.17L1442.97 813.275Z" fill="url(#paint1_linear_2471_287)"/>
<path d="M2393.16 846.088C2399.96 829.568 2423.35 829.568 2430.15 846.088L3350.62 3083.42C3356.04 3096.59 3346.36 3111.03 3332.13 3111.03H1491.18C1476.95 3111.03 1467.27 3096.59 1472.68 3083.42L2393.16 846.088Z" fill="url(#paint2_linear_2471_287)"/>
<path d="M4748.74 1467.12H4996.79L5362.02 2511.07L5727.26 1467.12H5975.3L5461.63 2889H5262.41L4748.74 1467.12ZM4614.95 1467.12H4862.02L4906.95 2484.7V2889H4614.95V1467.12ZM5862.02 1467.12H6110.07V2889H5817.1V2484.7L5862.02 1467.12ZM6835.66 2908.53C6753.62 2908.53 6680.06 2895.51 6614.95 2869.47C6549.85 2842.78 6494.51 2805.99 6448.94 2759.12C6404.02 2712.24 6369.51 2657.88 6345.42 2596.03C6321.33 2533.53 6309.29 2467.12 6309.29 2396.81V2357.75C6309.29 2277.67 6320.68 2204.43 6343.47 2138.02C6366.26 2071.62 6398.81 2014 6441.12 1965.17C6484.09 1916.34 6536.18 1878.91 6597.38 1852.87C6658.57 1826.17 6727.58 1812.83 6804.41 1812.83C6879.28 1812.83 6945.68 1825.2 7003.62 1849.94C7061.57 1874.68 7110.07 1909.83 7149.13 1955.41C7188.85 2000.98 7218.79 2055.67 7238.98 2119.47C7259.16 2182.62 7269.25 2252.93 7269.25 2330.41V2447.59H6429.41V2260.09H6992.88V2238.61C6992.88 2199.55 6985.72 2164.72 6971.4 2134.12C6957.73 2102.87 6936.89 2078.13 6908.9 2059.9C6880.9 2041.67 6845.1 2032.55 6801.48 2032.55C6764.37 2032.55 6732.47 2040.69 6705.77 2056.97C6679.08 2073.24 6657.27 2096.03 6640.34 2125.33C6624.07 2154.62 6611.7 2189.13 6603.23 2228.84C6595.42 2267.91 6591.52 2310.88 6591.52 2357.75V2396.81C6591.52 2439.13 6597.38 2478.19 6609.09 2514C6621.46 2549.81 6638.72 2580.73 6660.85 2606.77C6683.64 2632.82 6710.98 2653 6742.88 2667.32C6775.43 2681.64 6812.22 2688.8 6853.23 2688.8C6904.02 2688.8 6951.22 2679.04 6994.84 2659.51C7039.11 2639.33 7077.19 2609.05 7109.09 2568.69L7245.81 2717.12C7223.68 2749.03 7193.4 2779.62 7154.99 2808.92C7117.23 2838.22 7071.66 2862.31 7018.27 2881.19C6964.89 2899.42 6904.02 2908.53 6835.66 2908.53ZM7710.66 2062.83V2889H7429.41V1832.36H7694.05L7710.66 2062.83ZM8029.02 1825.52L8024.13 2086.27C8010.46 2084.31 7993.86 2082.68 7974.33 2081.38C7955.45 2079.43 7938.2 2078.45 7922.57 2078.45C7882.86 2078.45 7848.35 2083.66 7819.05 2094.08C7790.41 2103.84 7766.32 2118.49 7746.79 2138.02C7727.91 2157.55 7713.59 2181.32 7703.82 2209.31C7694.71 2237.31 7689.5 2269.21 7688.2 2305.02L7631.55 2287.44C7631.55 2219.08 7638.39 2156.25 7652.06 2098.96C7665.73 2041.02 7685.59 1990.56 7711.63 1947.59C7738.33 1904.62 7770.88 1871.42 7809.29 1847.98C7847.7 1824.55 7891.65 1812.83 7941.12 1812.83C7956.75 1812.83 7972.7 1814.13 7988.98 1816.73C8005.25 1818.69 8018.6 1821.62 8029.02 1825.52ZM8786.83 2636.07V1832.36H9068.08V2889H8803.43L8786.83 2636.07ZM8818.08 2419.27L8901.09 2417.32C8901.09 2487.63 8892.95 2553.06 8876.67 2613.61C8860.4 2673.51 8835.98 2725.59 8803.43 2769.86C8770.88 2813.48 8729.86 2847.66 8680.38 2872.4C8630.9 2896.49 8572.64 2908.53 8505.58 2908.53C8454.15 2908.53 8406.62 2901.37 8363 2887.05C8320.03 2872.07 8282.92 2848.96 8251.67 2817.71C8221.07 2785.81 8196.98 2745.12 8179.41 2695.64C8162.48 2645.51 8154.02 2585.29 8154.02 2514.98V1832.36H8435.27V2516.93C8435.27 2548.18 8438.85 2574.55 8446.01 2596.03C8453.82 2617.52 8464.56 2635.09 8478.23 2648.77C8491.91 2662.44 8507.86 2672.2 8526.09 2678.06C8544.97 2683.92 8565.8 2686.85 8588.59 2686.85C8646.53 2686.85 8692.1 2675.13 8725.3 2651.7C8759.16 2628.26 8782.92 2596.36 8796.59 2555.99C8810.92 2514.98 8818.08 2469.4 8818.08 2419.27Z" fill="#0C0C0C"/>
<defs>
<linearGradient id="paint0_linear_2471_287" x1="1543.8" y1="0" x2="1543.8" y2="2951.64" gradientUnits="userSpaceOnUse">
<stop stop-color="#FD5D76"/>
<stop offset="1" stop-color="#FFFEFE"/>
</linearGradient>
<linearGradient id="paint1_linear_2471_287" x1="1461.49" y1="767.89" x2="1461.49" y2="3881" gradientUnits="userSpaceOnUse">
<stop stop-color="#FD5D76"/>
<stop offset="1" stop-color="#F472B6"/>
</linearGradient>
<linearGradient id="paint2_linear_2471_287" x1="2411.65" y1="801.132" x2="2411.65" y2="3881" gradientUnits="userSpaceOnUse">
<stop stop-color="white"/>
<stop offset="0.598958" stop-color="#F472B6"/>
</linearGradient>
</defs>
</svg>
